PathFileType	4	(X/Y/Z)	C:/Users/empri/Downloads/Take 2024-05-09 02.19.33 PM.trc
DataRate	CameraRate	NumFrames	NumMarkers	Units	OrigDataRate	OrigDataStartFrame	OrigNumFrames
240	240	17	9	mm	240	735	841
Frame#	Time	C7	CLAV	RELB	RFIN	RFRM	RSHO	RUPA	RWRA	RWRB
X1	Y1	Z1	X2	Y2	Z2	X3	Y3	Z3	X4	Y4	Z4	X5	Y5	Z5	X6	Y6	Z6	X7	Y7	Z7	X8	Y8	Z8	X9	Y9	Z9
735	3.063	-128.499	1545.85	-59.9778	31.9131	1370.4	-145.144	105.898	1150.67	113.634	164.914	838.832	12.7967	114.171	1024.61	133.54	25.8953	1487.82	57.4519	66.5189	1328.22	123.698	122.683	916.148	24.6304	96.4731	888.836	113.567
736	3.067	-128.478	1545.86	-59.9744	31.9178	1370.4	-145.187	105.908	1150.71	113.64	164.924	838.82	12.7731	114.179	1024.61	133.488	25.8858	1487.83	57.4893	66.4954	1328.22	123.724	122.657	916.164	24.5811	96.3927	888.812	113.507
737	3.071	-128.456	1545.86	-59.9751	31.9516	1370.4	-145.162	105.925	1150.73	113.601	164.953	838.799	12.7362	114.2	1024.61	133.439	25.8728	1487.83	57.5236	66.4699	1328.22	123.763	122.645	916.173	24.5286	96.3349	888.757	113.458
738	3.075	-128.438	1545.86	-59.9797	31.9873	1370.41	-145.136	105.965	1150.77	113.565	164.999	838.801	12.7112	114.247	1024.6	133.389	25.8771	1487.84	57.5716	66.4551	1328.23	123.801	122.638	916.181	24.4899	96.3137	888.728	113.416
739	3.079	-128.425	1545.86	-59.9853	32.0245	1370.42	-145.106	106	1150.75	113.509	165.048	838.801	12.7047	114.317	1024.62	133.362	25.8623	1487.85	57.6137	66.4432	1328.23	123.847	122.642	916.191	24.4632	96.3275	888.721	113.399
740	3.083	-128.406	1545.86	-59.9842	32.0456	1370.42	-145.076	106.052	1150.82	113.507	165.106	838.82	12.6941	114.417	1024.63	133.35	25.85	1487.86	57.6578	66.3988	1328.24	123.905	122.637	916.194	24.4556	96.3782	888.731	113.406
741	3.087	-128.389	1545.86	-59.9812	32.0687	1370.41	-145.045	106.11	1150.82	113.479	165.166	838.826	12.7001	114.519	1024.66	133.347	25.8184	1487.87	57.6953	66.3803	1328.25	123.971	122.641	916.191	24.4629	96.4588	888.777	113.454
742	3.092	-128.364	1545.87	-59.9861	32.0943	1370.4	-145.013	106.181	1150.84	113.466	165.261	838.841	12.715	114.678	1024.68	133.355	25.8026	1487.87	57.7354	66.3857	1328.25	124.042	122.666	916.213	24.4808	96.5953	888.809	113.532
743	3.096	-128.348	1545.86	-59.9978	32.1266	1370.39	-144.995	106.267	1150.91	113.484	165.362	838.88	12.7306	114.825	1024.72	133.367	25.7897	1487.86	57.7916	66.3684	1328.25	124.091	122.691	916.204	24.5127	96.7566	888.8	113.602
744	3.1	-128.338	1545.85	-60.021	32.1506	1370.37	-144.969	106.364	1150.98	113.473	165.487	838.898	12.7541	114.971	1024.76	133.403	25.7651	1487.87	57.8066	66.3946	1328.25	124.141	122.731	916.21	24.5416	96.9214	888.839	113.688
745	3.104	-128.324	1545.85	-60.0406	32.1745	1370.36	-144.944	106.482	1151.07	113.484	165.609	838.94	12.8152	115.149	1024.83	133.441	25.7527	1487.87	57.8252	66.384	1328.3	124.17	122.763	916.231	24.5929	97.1133	888.894	113.793
746	3.108	-128.309	1545.83	-60.052	32.199	1370.35	-144.916	106.607	1151.16	113.507	165.744	838.992	12.8726	115.322	1024.89	133.489	25.7395	1487.89	57.843	66.4171	1328.32	124.229	122.796	916.24	24.6655	97.2953	888.955	113.901
747	3.112	-128.294	1545.83	-60.0657	32.2158	1370.33	-144.886	106.715	1151.24	113.517	165.894	839.036	12.9457	115.475	1024.94	133.555	25.725	1487.89	57.8585	66.4353	1328.34	124.276	122.838	916.242	24.7428	97.4989	889.009	114.027
748	3.117	-128.274	1545.83	-60.0834	32.2358	1370.31	-144.861	106.841	1151.32	113.561	166.08	839.103	13.0587	115.685	1025.02	133.634	25.711	1487.9	57.8696	66.4585	1328.39	124.33	122.902	916.25	24.8548	97.7771	889.091	114.185
749	3.121	-128.268	1545.83	-60.1011	32.2649	1370.3	-144.839	106.942	1151.39	113.616	166.266	839.174	13.1634	115.874	1025.09	133.722	25.6922	1487.91	57.8785	66.4833	1328.43	124.374	122.973	916.241	24.9648	97.9993	889.121	114.301
750	3.125	-128.258	1545.82	-60.1124	32.2932	1370.29	-144.822	107.06	1151.47	113.691	166.502	839.286	13.2783	116.066	1025.18	133.823	25.663	1487.93	57.8779	66.5123	1328.48	124.411	123.038	916.253	25.071	98.2696	889.138	114.424
751	3.129	-128.248	1545.82	-60.1241	32.3228	1370.29	-144.798	107.178	1151.56	113.75	166.762	839.418	13.4196	116.284	1025.27	133.944	25.6547	1487.95	57.8855	66.5719	1328.56	124.489	123.126	916.284	25.1856	98.4958	889.19	114.544
